<?xml version="1.0" encoding="utf-8"?>
<!-- Generator: Adobe Illustrator 16.0.3, SVG Export Plug-In . SVG Version: 6.00 Build 0)  -->
<!DOCTYPE svg PUBLIC "-//W3C//DTD SVG 1.1//EN" "http://www.w3.org/Graphics/SVG/1.1/DTD/svg11.dtd">
<svg version="1.1" xmlns="http://www.w3.org/2000/svg" xmlns:xlink="http://www.w3.org/1999/xlink" x="0px" y="0px" width="100px"
	 height="100px" viewBox="120 0 100 100" enable-background="new 120 0 100 100" xml:space="preserve">
<g id="Layer_1">
	<path d="M0,0v53.688c-0.006,0.006-0.027,0.03-0.027,0.03L0,99.266V100h100V0H0z M2,2h96v52.801L71.859,32.476L59.667,43.833
		c0,0,13.739,20.799,18.667,22c-5.15,3.204-42.332-44.164-42.332-44.164L2,56.48V2z"/>
</g>
<g id="Layer_2">
	<g>
		<circle fill="none" stroke="#000000" stroke-width="2" stroke-miterlimit="10" cx="170.004" cy="50" r="47.892"/>
		<g>
			<path d="M217.852,48.024c-0.04-9.895-4.034-17.831-8.249-24.962c-3.11-4.564-6.997-8.553-11.459-11.799h0.02
				c-0.039-0.023-0.078-0.048-0.117-0.071c-0.361-0.261-0.719-0.528-1.087-0.779h-0.214c-6.625-4.005-13.241-8.282-26.741-8.306
				c-11.785-0.021-19.936,4.296-26.771,8.306h-0.183c-0.287,0.196-0.563,0.405-0.846,0.606c-0.137,0.081-0.277,0.163-0.413,0.244
				h0.073c-4.45,3.238-8.33,7.217-11.437,11.768c-5.148,6.666-8.525,18.07-8.315,26.969c0.179,7.561,0.756,8.482,0.756,8.482
				l35.603-31.848c0,0,30.666,39.066,34.912,36.424c-4.063-0.992-15.396-18.145-15.396-18.145l10.057-9.366l28.682,24.774
				C216.726,60.322,217.896,58.84,217.852,48.024z"/>
		</g>
	</g>
</g>
</svg>
